<svg width="65" height="41" viewBox="0 0 65 41" fill="none" xmlns="http://www.w3.org/2000/svg">
<g filter="url(#filter0_di_843_54)">
<rect x="6" y="4" width="55" height="31" rx="15.5" fill="#F0ECEA"/>
</g>
<path d="M17.0095 25.2856H14.6523V22.9285H17.0095V15.8571H14.6523V13.4999H17.0095V8.78564H21.7238V13.4999H24.0809V8.78564H28.7952V13.4999H31.1523V15.8571H28.7952V22.9285H31.1523V25.2856H28.7952V29.9999H24.0809V25.2856H21.7238V29.9999H17.0095V25.2856ZM21.7238 22.9285H24.0809V15.8571H21.7238V22.9285Z" fill="black"/>
<path d="M38.2146 27.6428H35.8574V11.1428H38.2146V8.78564H50.0003V11.1428H52.3574V27.6428H50.0003V29.9999H38.2146V27.6428ZM42.9289 18.2142V15.8571H45.286V13.4999H47.6431V11.1428H40.5717V18.2142H42.9289ZM42.9289 20.5714V22.9285H40.5717V27.6428H47.6431V18.2142H45.286V20.5714H42.9289Z" fill="black"/>
<defs>
<filter id="filter0_di_843_54" x="0" y="-1" width="66" height="42" filterUnits="userSpaceOnUse" color-interpolation-filters="sRGB">
<feFlood flood-opacity="0" result="BackgroundImageFix"/>
<feColorMatrix in="SourceAlpha" type="matrix" values="0 0 0 0 0 0 0 0 0 0 0 0 0 0 0 0 0 0 127 0" result="hardAlpha"/>
<feOffset dx="-1" dy="1"/>
<feGaussianBlur stdDeviation="2.5"/>
<feComposite in2="hardAlpha" operator="out"/>
<feColorMatrix type="matrix" values="0 0 0 0 0.243137 0 0 0 0 0.333333 0 0 0 0 0.611765 0 0 0 0.9 0"/>
<feBlend mode="normal" in2="BackgroundImageFix" result="effect1_dropShadow_843_54"/>
<feBlend mode="normal" in="SourceGraphic" in2="effect1_dropShadow_843_54" result="shape"/>
<feColorMatrix in="SourceAlpha" type="matrix" values="0 0 0 0 0 0 0 0 0 0 0 0 0 0 0 0 0 0 127 0" result="hardAlpha"/>
<feOffset dx="5" dy="-5"/>
<feGaussianBlur stdDeviation="2.5"/>
<feComposite in2="hardAlpha" operator="arithmetic" k2="-1" k3="1"/>
<feColorMatrix type="matrix" values="0 0 0 0 0.243137 0 0 0 0 0.333333 0 0 0 0 0.611765 0 0 0 0.25 0"/>
<feBlend mode="normal" in2="shape" result="effect2_innerShadow_843_54"/>
</filter>
</defs>
</svg>
