<svg width="65" height="41" viewBox="0 0 65 41" fill="none" xmlns="http://www.w3.org/2000/svg">
<g filter="url(#filter0_di_846_96)">
<rect x="6" y="4" width="55" height="31" rx="15.5" fill="#F0ECEA"/>
</g>
<path d="M17.0092 25.2861H14.6521V22.929H17.0092V15.8576H14.6521V13.5004H17.0092V8.78613H21.7235V13.5004H24.0807V8.78613H28.795V13.5004H31.1521V15.8576H28.795V22.929H31.1521V25.2861H28.795V30.0004H24.0807V25.2861H21.7235V30.0004H17.0092V25.2861ZM21.7235 22.929H24.0807V15.8576H21.7235V22.929Z" fill="black"/>
<path d="M52.3572 27.6433V30.0004H38.2143V27.6433H42.9286V15.8576H38.2143V13.5004H40.5715V11.1433H42.9286V8.78613H47.6429V27.6433H52.3572Z" fill="black"/>
<defs>
<filter id="filter0_di_846_96" x="0" y="-1" width="66" height="42" filterUnits="userSpaceOnUse" color-interpolation-filters="sRGB">
<feFlood flood-opacity="0" result="BackgroundImageFix"/>
<feColorMatrix in="SourceAlpha" type="matrix" values="0 0 0 0 0 0 0 0 0 0 0 0 0 0 0 0 0 0 127 0" result="hardAlpha"/>
<feOffset dx="-1" dy="1"/>
<feGaussianBlur stdDeviation="2.5"/>
<feComposite in2="hardAlpha" operator="out"/>
<feColorMatrix type="matrix" values="0 0 0 0 0.243137 0 0 0 0 0.333333 0 0 0 0 0.611765 0 0 0 0.9 0"/>
<feBlend mode="normal" in2="BackgroundImageFix" result="effect1_dropShadow_846_96"/>
<feBlend mode="normal" in="SourceGraphic" in2="effect1_dropShadow_846_96" result="shape"/>
<feColorMatrix in="SourceAlpha" type="matrix" values="0 0 0 0 0 0 0 0 0 0 0 0 0 0 0 0 0 0 127 0" result="hardAlpha"/>
<feOffset dx="5" dy="-5"/>
<feGaussianBlur stdDeviation="2.5"/>
<feComposite in2="hardAlpha" operator="arithmetic" k2="-1" k3="1"/>
<feColorMatrix type="matrix" values="0 0 0 0 0.243137 0 0 0 0 0.333333 0 0 0 0 0.611765 0 0 0 0.25 0"/>
<feBlend mode="normal" in2="shape" result="effect2_innerShadow_846_96"/>
</filter>
</defs>
</svg>
