<svg width="65" height="41" viewBox="0 0 65 41" fill="none" xmlns="http://www.w3.org/2000/svg">
<g filter="url(#filter0_di_852_221)">
<rect x="6" y="4" width="55" height="31" rx="15.5" fill="#F0ECEA"/>
</g>
<path d="M18.0095 25.2856H15.6523V22.9285H18.0095V15.8571H15.6523V13.4999H18.0095V8.78564H22.7238V13.4999H25.0809V8.78564H29.7952V13.4999H32.1523V15.8571H29.7952V22.9285H32.1523V25.2856H29.7952V29.9999H25.0809V25.2856H22.7238V29.9999H18.0095V25.2856ZM22.7238 22.9285H25.0809V15.8571H22.7238V22.9285Z" fill="black"/>
<path d="M39.2146 18.2142V15.8571H41.5717V13.4999H43.9289V11.1428H46.286V8.78564H51.0003V20.5714H53.3574V22.9285H51.0003V27.6428H53.3574V29.9999H43.9289V27.6428H46.286V22.9285H36.8574V18.2142H39.2146ZM43.9289 18.2142H41.5717V20.5714H46.286V15.8571H43.9289V18.2142Z" fill="black"/>
<defs>
<filter id="filter0_di_852_221" x="0" y="-1" width="66" height="42" filterUnits="userSpaceOnUse" color-interpolation-filters="sRGB">
<feFlood flood-opacity="0" result="BackgroundImageFix"/>
<feColorMatrix in="SourceAlpha" type="matrix" values="0 0 0 0 0 0 0 0 0 0 0 0 0 0 0 0 0 0 127 0" result="hardAlpha"/>
<feOffset dx="-1" dy="1"/>
<feGaussianBlur stdDeviation="2.5"/>
<feComposite in2="hardAlpha" operator="out"/>
<feColorMatrix type="matrix" values="0 0 0 0 0.243137 0 0 0 0 0.333333 0 0 0 0 0.611765 0 0 0 0.9 0"/>
<feBlend mode="normal" in2="BackgroundImageFix" result="effect1_dropShadow_852_221"/>
<feBlend mode="normal" in="SourceGraphic" in2="effect1_dropShadow_852_221" result="shape"/>
<feColorMatrix in="SourceAlpha" type="matrix" values="0 0 0 0 0 0 0 0 0 0 0 0 0 0 0 0 0 0 127 0" result="hardAlpha"/>
<feOffset dx="5" dy="-5"/>
<feGaussianBlur stdDeviation="2.5"/>
<feComposite in2="hardAlpha" operator="arithmetic" k2="-1" k3="1"/>
<feColorMatrix type="matrix" values="0 0 0 0 0.243137 0 0 0 0 0.333333 0 0 0 0 0.611765 0 0 0 0.25 0"/>
<feBlend mode="normal" in2="shape" result="effect2_innerShadow_852_221"/>
</filter>
</defs>
</svg>
