<svg width="215" height="208" viewBox="0 0 215 208" fill="none" xmlns="http://www.w3.org/2000/svg">
<path d="M15.4667 195.163C16.4893 195.865 17.0027 196.774 17.0067 197.89C17.0082 198.992 16.5282 200.244 15.5668 201.645L11.2571 207.926L4.47741e-05 200.202L4.00314 194.368C4.35676 193.852 4.74787 193.369 5.17649 192.917C5.60258 192.451 6.06246 192.092 6.55614 191.838C7.04176 191.579 7.56347 191.458 8.12126 191.473C8.67905 191.489 9.26394 191.707 9.8759 192.126C10.4396 192.513 10.8253 193.038 11.0331 193.702C11.2409 194.366 11.1994 195.143 10.9084 196.033C11.6672 195.203 12.432 194.727 13.2029 194.605C13.9713 194.469 14.7259 194.655 15.4667 195.163ZM8.46675 194.801C8.22518 194.636 7.99602 194.555 7.77925 194.561C7.55995 194.552 7.35202 194.605 7.15547 194.719C6.95639 194.819 6.77018 194.97 6.59684 195.17C6.42902 195.363 6.27329 195.564 6.12963 195.774L3.81729 199.144L6.07593 200.693L8.38828 197.324C8.53194 197.114 8.66352 196.897 8.78302 196.671C8.89999 196.431 8.97347 196.203 9.00346 195.987C9.03897 195.763 9.0174 195.552 8.93877 195.356C8.8576 195.147 8.70026 194.962 8.46675 194.801ZM13.3932 197.382C12.9987 197.112 12.5915 197.075 12.1717 197.273C11.7439 197.465 11.3255 197.859 10.9166 198.454L8.32251 202.235L10.7261 203.884L13.3202 200.104C13.7291 199.508 13.9462 198.976 13.9714 198.508C13.9966 198.039 13.8039 197.664 13.3932 197.382ZM22.4823 184.543C23.6061 185.355 24.1993 186.327 24.262 187.457C24.3168 188.581 23.8807 189.784 22.9537 191.066L20.2843 194.758L9.22112 186.758L10.9893 184.313L15.2745 187.411L16.1929 186.141C17.1084 184.875 18.1046 184.089 19.1815 183.783C20.2504 183.471 21.3507 183.725 22.4823 184.543ZM20.7294 187.017C20.3258 186.725 19.926 186.653 19.5301 186.801C19.1262 186.943 18.7498 187.255 18.4007 187.738L17.4823 189.008L19.8445 190.716L20.763 189.446C21.112 188.963 21.2906 188.508 21.2988 188.08C21.3069 187.652 21.1171 187.298 20.7294 187.017ZM15.7873 177.677L17.564 175.22L28.6272 183.22L26.8504 185.677L15.7873 177.677ZM27.1714 174.271C28.1582 175.023 29.1489 175.366 30.1436 175.301C31.1363 175.222 31.9788 174.728 32.6709 173.819C33.3275 172.956 33.5706 172.024 33.4 171.023C33.2276 170.008 32.648 169.125 31.6612 168.374C30.6589 167.611 29.6613 167.269 28.6685 167.347C27.6817 167.418 26.8363 167.916 26.1323 168.841C25.3811 169.828 25.1144 170.791 25.3322 171.73C25.556 172.661 26.1691 173.508 27.1714 174.271ZM22.8156 174.987C21.65 174.1 20.6772 173.169 19.8971 172.195C19.1229 171.212 18.5586 170.237 18.2043 169.267C17.8558 168.29 17.721 167.347 17.7998 166.437C17.8786 165.527 18.202 164.7 18.7698 163.954C19.0479 163.589 19.3135 163.312 19.5668 163.125C19.8202 162.937 20.0683 162.788 20.3113 162.679C20.5524 162.555 20.7701 162.439 20.9642 162.329C21.1643 162.211 21.356 162.032 21.5394 161.791C21.7819 161.472 21.9316 161.163 21.9885 160.863C22.0512 160.554 22.0757 160.143 22.0618 159.63L24.4926 159.75C24.6234 160.303 24.6307 160.923 24.5144 161.607C24.4041 162.284 24.1389 162.899 23.7189 163.45C23.435 163.823 23.1723 164.096 22.9308 164.268C22.6874 164.426 22.4482 164.563 22.213 164.679C21.9837 164.787 21.766 164.903 21.56 165.029C21.3522 165.14 21.1448 165.332 20.9377 165.604C20.6597 165.969 20.4956 166.378 20.4455 166.831C20.3876 167.278 20.4651 167.773 20.678 168.315C20.889 168.844 21.2482 169.412 21.7556 170.019C22.2611 170.613 22.9528 171.244 23.8309 171.912C23.3467 171.065 23.1252 170.227 23.1663 169.4C23.2133 168.564 23.4853 167.82 23.9822 167.167C24.5619 166.406 25.2168 165.787 25.9468 165.312C26.669 164.831 27.4398 164.528 28.259 164.403C29.0765 164.264 29.9267 164.316 30.8097 164.559C31.6928 164.802 32.5889 165.269 33.498 165.961C34.2594 166.541 34.8708 167.221 35.332 168.002C35.7932 168.782 36.0851 169.6 36.2079 170.454C36.3288 171.295 36.2807 172.148 36.0635 173.014C35.8463 173.88 35.4479 174.693 34.8682 175.455C33.478 177.281 31.7939 178.171 29.8156 178.125C27.8374 178.08 25.504 177.034 22.8156 174.987ZM30.4987 158.139L32.3993 155.777L39.7156 161.662L35.7689 151.588L38.1561 148.62L48.7938 157.177L46.8933 159.54L39.1546 153.315L43.3401 163.957L41.1365 166.696L30.4987 158.139ZM41.3726 144.657L43.3323 142.343L44.2712 143.139C44.2486 142.364 44.3298 141.672 44.5147 141.06C44.6985 140.436 45.0365 139.832 45.5288 139.251C46.0968 138.58 46.7616 138.075 47.5233 137.735C48.2776 137.388 49.0705 137.215 49.902 137.215C50.726 137.209 51.5781 137.374 52.4582 137.71C53.3309 138.04 54.1622 138.539 54.9521 139.208C55.7495 139.883 56.3826 140.624 56.8513 141.43C57.3201 142.237 57.6231 143.05 57.7604 143.87C57.8902 144.684 57.8463 145.492 57.6286 146.293C57.4109 147.094 57.0181 147.829 56.4501 148.5C55.9578 149.081 55.4148 149.511 54.8212 149.789C54.2338 150.059 53.5565 150.247 52.7892 150.352L57.9201 154.698L55.9604 157.012L41.3726 144.657ZM50.9559 148.8C51.495 148.783 52.0301 148.634 52.5612 148.355C53.0912 148.061 53.5235 147.717 53.858 147.322C54.5964 146.45 54.8867 145.481 54.7288 144.413C54.5773 143.337 53.9986 142.374 52.9925 141.522C51.9864 140.67 50.9369 140.254 49.8439 140.276C48.7572 140.29 47.8446 140.732 47.1062 141.604C46.7717 141.999 46.5034 142.482 46.3013 143.053C46.0981 143.611 46.0325 144.157 46.1045 144.691L50.9559 148.8ZM59.327 138.507C58.7288 137.974 58.3501 137.35 58.1908 136.633C58.0242 135.909 58.0219 135.155 58.1838 134.371C58.3522 133.58 58.6621 132.784 59.1135 131.983C59.5642 131.168 60.1011 130.41 60.7244 129.71C61.0685 129.323 61.3713 128.998 61.6326 128.734C61.8939 128.47 62.1657 128.208 62.4481 127.95L62.0433 127.589C61.5108 127.115 60.9282 126.97 60.2955 127.152C59.6693 127.326 59.0575 127.749 58.4602 128.42C57.9148 129.033 57.4472 129.735 57.0574 130.525C56.6603 131.309 56.3727 132.132 56.1945 132.993L53.6038 132.334C53.8145 131.319 54.1513 130.331 54.6142 129.37C55.0763 128.396 55.6872 127.482 56.4468 126.628C56.9403 126.074 57.486 125.586 58.084 125.164C58.6885 124.734 59.3212 124.435 59.9823 124.265C60.6499 124.087 61.327 124.076 62.0139 124.229C62.6934 124.377 63.3687 124.749 64.0398 125.346L70.8785 131.433L68.882 133.676L67.383 132.342C67.6192 133.193 67.5789 134.105 67.262 135.078C66.9515 136.044 66.4392 136.928 65.725 137.73C65.2835 138.226 64.7954 138.635 64.2608 138.957C63.7399 139.277 63.2017 139.478 62.6461 139.559C62.0905 139.64 61.5281 139.603 60.9589 139.449C60.3889 139.282 59.8449 138.968 59.327 138.507ZM64.2169 135.348C64.613 134.903 64.9283 134.439 65.163 133.955C65.3969 133.457 65.5485 132.971 65.6177 132.497C65.6797 132.016 65.6431 131.565 65.5079 131.144C65.3793 130.716 65.1435 130.349 64.8007 130.044L64.4177 129.703C64.0412 130.008 63.7097 130.315 63.4232 130.622C63.1367 130.929 62.8864 131.203 62.6721 131.444C61.6852 132.552 61.0844 133.521 60.8698 134.35C60.6616 135.171 60.7728 135.774 61.2031 136.157C62.0566 136.916 63.0612 136.647 64.2169 135.348ZM64.1171 118.53L66.1912 116.319L73.0406 122.741L69.8684 112.397L72.4735 109.619L82.4325 118.957L80.3584 121.169L73.1136 114.376L76.4808 125.304L74.076 127.869L64.1171 118.53ZM69.0807 108.204C69.1339 110.075 68.5193 111.694 67.2368 113.062C65.9476 114.437 64.3712 115.154 62.5077 115.214L62.4485 112.729C63.7461 112.687 64.7723 112.264 65.5271 111.459C66.2819 110.654 66.6384 109.602 66.5967 108.305L69.0807 108.204ZM105.236 93.4094C105.213 94.6522 104.961 95.7284 104.482 96.6381C104.009 97.5411 103.365 98.3856 102.55 99.1718C101.727 99.9647 100.86 100.563 99.9475 100.968C99.0423 101.366 98.1407 101.57 97.2426 101.581C96.3448 101.578 95.4644 101.383 94.6014 100.994C93.7453 100.598 92.9412 100.01 92.189 99.2295C91.4706 98.4842 90.9295 97.6765 90.5657 96.8065C90.2021 95.9227 90.0144 95.0525 90.0025 94.1958C89.991 93.3254 90.1515 92.4858 90.4841 91.6769C90.8099 90.861 91.2962 90.1414 91.9431 89.5179C92.6181 88.8673 93.3408 88.442 94.1111 88.2421C94.8814 88.0422 95.64 88.1045 96.3868 88.4291L95.0145 87.0053L96.9657 85.1246L101.377 89.7021L99.4263 91.5827C98.5927 90.7178 97.6895 90.2592 96.7166 90.2067C95.744 90.1404 94.8781 90.4733 94.1187 91.2052C93.8163 91.4966 93.5574 91.8682 93.3419 92.3201C93.1266 92.7581 93.0037 93.2428 92.9732 93.774C92.9497 94.2985 93.0397 94.8492 93.2432 95.4262C93.4467 96.0032 93.8195 96.5729 94.3616 97.1354C94.8902 97.6839 95.4356 98.0738 95.9977 98.3052C96.553 98.5295 97.0966 98.6362 97.6286 98.6253C98.1609 98.6005 98.6847 98.4686 99.2002 98.2295C99.716 97.9765 100.181 97.6501 100.596 97.2503C101.306 96.5658 101.816 95.8638 102.127 95.1444C102.437 94.4111 102.606 93.6787 102.633 92.9471L105.236 93.4094ZM116.86 80.1817C117.698 81.0961 117.993 82.0974 117.745 83.1856C117.497 84.2599 116.747 85.3711 115.495 86.5191L109.879 91.6653L100.655 81.5998L105.871 76.8198C106.332 76.3975 106.822 76.0146 107.342 75.6709C107.862 75.3135 108.391 75.067 108.93 74.9315C109.461 74.7889 109.997 74.7881 110.537 74.9291C111.077 75.0702 111.597 75.4143 112.099 75.9615C112.56 76.4655 112.818 77.0643 112.87 77.7577C112.923 78.4512 112.707 79.1987 112.223 80C113.149 79.3631 114.002 79.072 114.78 79.1267C115.56 79.1677 116.253 79.5193 116.86 80.1817ZM110.122 78.2495C109.924 78.0335 109.719 77.9036 109.507 77.8597C109.295 77.8021 109.08 77.8066 108.863 77.8731C108.647 77.9259 108.431 78.0305 108.217 78.1871C108.01 78.337 107.813 78.4977 107.626 78.6693L104.613 81.4304L106.463 83.45L109.477 80.6889C109.664 80.5173 109.841 80.335 110.008 80.1418C110.176 79.9349 110.299 79.7295 110.377 79.5255C110.463 79.315 110.489 79.1053 110.457 78.8965C110.425 78.674 110.313 78.4583 110.122 78.2495ZM114.339 81.8757C114.016 81.5229 113.627 81.3954 113.174 81.4931C112.714 81.5836 112.217 81.8729 111.684 82.3612L108.304 85.4587L110.273 87.6079L113.654 84.5103C114.187 84.0221 114.518 83.5527 114.648 83.1022C114.779 82.6517 114.676 82.2429 114.339 81.8757ZM127.974 66.3559C128.672 67.1596 129.176 68.0017 129.488 68.882C129.807 69.756 129.935 70.6407 129.872 71.5361C129.81 72.4178 129.563 73.2796 129.129 74.1213C128.696 74.963 128.07 75.7392 127.252 76.4499C126.448 77.1478 125.599 77.6522 124.705 77.963C123.811 78.2738 122.919 78.4014 122.03 78.3456C121.142 78.2761 120.284 78.0253 119.456 77.5932C118.636 77.1546 117.877 76.5335 117.179 75.7297C116.5 74.9481 115.998 74.1167 115.672 73.2353C115.348 72.3402 115.213 71.4482 115.269 70.5591C115.326 69.6562 115.574 68.7877 116.013 67.9533C116.446 67.1116 117.065 66.3418 117.869 65.6439C118.687 64.9331 119.543 64.4224 120.437 64.1116C121.325 63.7934 122.216 63.6727 123.111 63.7496C124.006 63.8127 124.871 64.0709 125.704 64.5242C126.538 64.9637 127.295 65.5743 127.974 66.3559ZM125.695 68.3344C125.292 67.8699 124.837 67.4952 124.331 67.2103C123.826 66.9116 123.309 66.7333 122.78 66.6753C122.251 66.6172 121.718 66.6731 121.18 66.8429C120.642 66.9988 120.134 67.2849 119.655 67.7011C119.168 68.1237 118.81 68.59 118.58 69.0999C118.344 69.6024 118.221 70.1164 118.212 70.6419C118.203 71.1673 118.307 71.7042 118.524 72.2526C118.743 72.7871 119.054 73.2867 119.457 73.7512C119.88 74.2379 120.334 74.6195 120.82 74.896C121.313 75.1661 121.824 75.3371 122.352 75.4089C122.88 75.4807 123.409 75.435 123.94 75.2716C124.464 75.1009 124.969 74.8042 125.456 74.3816C125.935 73.9654 126.296 73.5097 126.539 73.0146C126.782 72.5056 126.909 71.9815 126.92 71.4423C126.93 70.9031 126.832 70.3736 126.627 69.8537C126.428 69.3275 126.118 68.821 125.695 68.3344ZM126.543 58.5672L128.881 56.636L134.861 63.8752L133.025 53.2122L135.962 50.7866L144.656 61.3122L142.319 63.2433L135.994 55.5863L137.948 66.8537L135.238 69.0927L126.543 58.5672ZM132.775 48.9536C132.591 50.8159 131.776 52.3441 130.331 53.5382C128.878 54.7386 127.223 55.2504 125.367 55.0736L125.623 52.6008C126.916 52.7239 127.987 52.4341 128.838 51.7313C129.689 51.0285 130.176 50.0309 130.299 48.7385L132.775 48.9536ZM170.513 38.8557C170.331 40.0853 169.944 41.1205 169.352 41.9613C168.768 42.7963 168.021 43.5514 167.111 44.2266C166.194 44.9076 165.257 45.3902 164.3 45.6746C163.352 45.9531 162.431 46.0403 161.539 45.9363C160.649 45.8186 159.801 45.5116 158.995 45.0154C158.197 44.5134 157.474 43.8272 156.828 42.9568C156.211 42.1256 155.778 41.2553 155.529 40.3458C155.281 39.4227 155.207 38.5356 155.305 37.6845C155.405 36.8198 155.671 36.0076 156.105 35.248C156.533 34.4806 157.107 33.8292 157.828 33.2937C158.581 32.7349 159.352 32.4057 160.142 32.3061C160.932 32.2065 161.676 32.3655 162.375 32.783L161.196 31.1951L163.372 29.5799L167.162 34.6847L164.986 36.2999C164.27 35.3354 163.433 34.7648 162.474 34.5882C161.518 34.3979 160.617 34.6171 159.77 35.2457C159.433 35.496 159.128 35.8314 158.857 36.2519C158.587 36.6588 158.403 37.1237 158.305 37.6467C158.214 38.1638 158.233 38.7215 158.361 39.3198C158.489 39.9181 158.786 40.5309 159.251 41.1582C159.705 41.7699 160.196 42.2264 160.724 42.5279C161.246 42.8215 161.772 42.9969 162.301 43.0543C162.832 43.0979 163.368 43.0342 163.91 42.863C164.454 42.6782 164.957 42.4141 165.42 42.0707C166.212 41.4828 166.808 40.852 167.208 40.1782C167.609 39.4907 167.871 38.7859 167.991 38.0639L170.513 38.8557ZM182.28 24.4995C182.893 25.3697 183.31 26.2585 183.531 27.1658C183.76 28.0676 183.798 28.9607 183.645 29.8452C183.494 30.7161 183.16 31.5484 182.644 32.342C182.128 33.1356 181.427 33.8445 180.541 34.4688C179.671 35.0819 178.775 35.4979 177.854 35.7167C176.933 35.9355 176.033 35.9722 175.154 35.8269C174.278 35.668 173.45 35.3317 172.67 34.818C171.898 34.2987 171.205 33.604 170.592 32.7338C169.996 31.8876 169.58 31.0096 169.346 30.0999C169.113 29.1766 169.07 28.2755 169.215 27.3966C169.363 26.5041 169.697 25.6651 170.219 24.8794C170.735 24.0858 171.428 23.3825 172.298 22.7694C173.184 22.1451 174.088 21.7235 175.009 21.5047C175.924 21.2779 176.823 21.248 177.705 21.4149C178.59 21.5682 179.424 21.9125 180.207 22.4477C180.992 22.9694 181.683 23.6533 182.28 24.4995ZM179.813 26.2375C179.458 25.7346 179.044 25.3158 178.569 24.9812C178.097 24.6331 177.601 24.4034 177.08 24.2921C176.56 24.1809 176.024 24.1825 175.471 24.297C174.921 24.3979 174.386 24.6311 173.867 24.9967C173.341 25.368 172.937 25.7956 172.657 26.2797C172.371 26.7558 172.197 27.2547 172.135 27.7765C172.072 28.2983 172.122 28.843 172.282 29.4106C172.446 29.9645 172.705 30.4929 173.059 30.9959C173.43 31.5228 173.843 31.9483 174.299 32.2725C174.762 32.5912 175.253 32.8129 175.771 32.9377C176.289 33.0625 176.82 33.0705 177.365 32.9616C177.904 32.8448 178.436 32.6008 178.963 32.2296C179.482 31.864 179.887 31.4471 180.179 30.979C180.473 30.4973 180.652 29.9887 180.717 29.4533C180.781 28.9179 180.738 28.3812 180.586 27.8432C180.442 27.2996 180.184 26.7644 179.813 26.2375ZM193.916 12.2984C193.518 12.353 193.136 12.4496 192.771 12.5881C192.408 12.7131 192.024 12.9113 191.618 13.1826C191.058 13.5569 190.587 13.9949 190.205 14.4964C189.827 14.9843 189.57 15.5141 189.435 16.0858C189.3 16.6574 189.3 17.2628 189.433 17.9018C189.569 18.5273 189.865 19.1811 190.321 19.8631L192.209 22.6887L194.755 20.9877L196.269 23.253L188.632 28.3561L187.118 26.0908L189.688 24.3735L185.138 17.5653L182.569 19.2826L181.047 17.0051L186.138 13.603L188.042 16.4529C187.697 15.0395 187.768 13.8287 188.257 12.8206C188.755 11.8071 189.56 10.9286 190.672 10.1853C191.021 9.95197 191.411 9.74434 191.841 9.5624C192.272 9.38045 192.732 9.26077 193.222 9.20335L193.916 12.2984ZM202.077 12.6441C202.701 13.3589 203.494 13.7827 204.455 13.9154C205.419 14.0347 206.434 13.7583 207.499 13.0863C208.334 12.5601 208.976 11.9762 209.425 11.3347C209.878 10.6797 210.192 9.99672 210.367 9.28589L212.822 10.2665C212.547 11.4788 212.079 12.4843 211.416 13.283C210.762 14.0766 209.944 14.7833 208.961 15.4032C208.069 15.9658 207.145 16.3407 206.189 16.5278C205.233 16.7149 204.308 16.7213 203.413 16.5469C202.512 16.3642 201.669 16.0069 200.884 15.4749C200.106 14.9377 199.433 14.219 198.866 13.3186C198.313 12.443 197.95 11.5465 197.775 10.629C197.604 9.69808 197.613 8.79745 197.803 7.92714C197.996 7.04336 198.371 6.21836 198.927 5.45215C199.477 4.67768 200.203 4.00653 201.103 3.4387C202.037 2.85003 202.985 2.47714 203.948 2.32001C204.906 2.15463 205.843 2.20412 206.761 2.4685C207.686 2.72766 208.578 3.19865 209.436 3.88147C210.288 4.55603 211.061 5.44261 211.754 6.5412L202.077 12.6441ZM207.432 6.11471C206.831 5.45465 206.072 5.10217 205.155 5.05725C204.232 5.00407 203.366 5.23274 202.557 5.74327C201.747 6.25379 201.164 6.93937 200.806 7.80002C200.443 8.6524 200.43 9.49197 200.766 10.3187L207.432 6.11471Z" fill="black"/>
</svg>
