<svg width="725" height="452" viewBox="0 0 725 452" fill="none" xmlns="http://www.w3.org/2000/svg">
<g filter="url(#filter0_di_259_18)">
<path d="M192.06 190.572C194.907 193.835 197.84 196.713 200.859 199.204C203.964 201.609 207.069 203.713 210.175 205.517C213.28 207.321 216.342 208.824 219.361 210.026C222.38 211.143 223.497 211.603 228.03 212.732C232.564 213.861 256.798 214.407 257.143 214.407C257.488 214.407 257.076 243.674 257.076 243.674C256.73 243.76 253.822 244.04 251.062 244.556C248.387 245.157 244.765 245.458 240.193 245.458C231.74 245.458 224.019 244.599 217.032 242.881C210.045 241.163 203.662 238.887 197.883 236.052C192.104 233.218 186.799 229.954 181.968 226.26C177.224 222.481 172.738 218.53 168.512 214.407C164.371 210.284 160.447 206.161 156.737 202.038C153.028 197.83 149.362 193.878 145.739 190.185C142.117 186.492 138.407 183.142 134.612 180.135C130.903 177.129 126.935 174.767 122.708 173.049C117.964 171.074 113.047 169.485 107.958 168.282C102.955 167.08 97.9951 166.178 93.0784 165.577C88.1616 164.889 83.3742 164.417 78.7162 164.159C74.1445 163.902 69.961 163.773 66.1656 163.773C60.5587 163.773 56.1164 163.902 52.8386 164.159C50.9409 164.245 49.2588 164.374 47.7924 164.546V244.04H10.3992V243.008V19.4057L47.7924 4V133.882C60.4725 133.882 71.5568 133.366 81.0452 132.336C90.5337 131.305 98.7714 129.931 105.758 128.213C112.745 126.495 118.654 124.476 123.485 122.157C128.401 119.838 132.542 117.433 135.906 114.942C139.356 112.366 142.289 109.746 144.704 107.083C147.12 104.42 149.319 101.844 151.303 99.3526C159.325 89.5608 167.52 81.7445 175.887 75.9037C184.254 69.9771 192.362 65.4247 200.212 62.2466C208.061 59.0686 215.393 56.9642 222.208 55.9335C229.109 54.9027 235.017 54.3874 239.934 54.3874C244.075 54.3874 247.352 54.5592 249.768 54.9027C252.269 55.2463 253.649 55.4611 253.908 55.5469L245.498 84.1495C244.894 83.9777 244.204 83.8489 243.428 83.763C242.047 83.5053 240.107 83.3764 237.605 83.3764C234.672 83.3764 231.049 83.763 226.736 84.536C222.51 85.2232 217.809 86.7692 212.633 89.1743C207.458 91.4934 201.98 94.8432 196.201 99.2238C190.422 103.518 184.556 109.273 178.604 116.488C176.361 119.151 173.774 122.029 170.841 125.121C167.994 128.127 164.889 131.047 161.525 133.882C158.161 136.63 154.538 139.121 150.656 141.355C146.861 143.588 142.893 145.22 138.752 146.251C141.513 147.109 144.618 148.656 148.068 150.889C151.519 153.122 155.055 155.699 158.678 158.619C162.301 161.454 165.881 164.546 169.417 167.896C173.04 171.16 176.361 174.295 179.38 177.301C182.399 180.221 185.03 182.884 187.273 185.289C189.516 187.694 191.112 189.455 192.06 190.572Z" fill="#F0ECEA"/>
<path d="M541.409 55.1604C541.409 55.1604 540.881 239.827 541.409 243.73C541.937 247.632 541.274 250.931 547.237 254.889C553.199 258.847 566.448 251.59 566.448 251.59L517.084 285.078C517.084 285.078 511.623 278.752 509.476 270.721C507.328 262.689 506.446 251.048 506.086 243.948C505.725 236.848 506.086 225.745 506.086 225.745C506.086 216.64 505.353 207.621 503.886 198.688C502.506 189.756 500.35 180.994 497.417 172.405C496.813 170.515 495.821 167.767 494.441 164.159C493.061 160.466 491.206 156.3 488.877 151.662C486.548 146.938 483.659 141.913 480.208 136.587C476.758 131.176 472.574 125.851 467.658 120.611C462.827 115.286 457.22 110.175 450.837 105.279C444.454 100.383 437.122 96.0887 428.841 92.3953C420.56 88.6159 411.287 85.6097 401.023 83.3764C390.844 81.1432 379.501 80.0266 366.993 80.0266C356.125 80.0266 346.421 80.9714 337.881 82.8611C329.428 84.6649 322.009 87.1987 315.626 90.4627C309.243 93.6407 303.809 97.42 299.323 101.801C294.924 106.181 291.344 110.948 288.584 116.102C285.824 121.255 283.797 126.667 282.503 132.336C281.209 138.005 280.476 143.717 280.303 149.472C280.303 149.815 280.303 150.116 280.303 150.373C280.303 155.355 280.95 160.509 282.244 165.834C283.538 171.16 285.608 176.399 288.455 181.553C291.301 186.706 294.881 191.559 299.194 196.112C303.507 200.664 308.596 204.658 314.462 208.094C320.327 211.444 326.969 214.106 334.388 216.082C341.806 218.057 350 219.045 358.971 219.045C369.064 219.045 379.027 217.628 388.86 214.794C398.78 211.959 408.268 207.621 417.326 201.781C426.469 195.854 435.052 188.338 443.074 179.234C451.096 170.129 458.255 159.349 464.552 146.895L491.336 160.294C476.585 189.498 457.997 211.573 435.569 226.518C413.142 241.378 387.48 248.807 358.583 248.807C356.168 248.807 353.106 248.807 349.397 248.807C345.688 248.807 341.504 248.55 336.846 248.034C332.188 247.605 327.142 246.789 321.708 245.586C316.273 244.384 310.623 242.58 304.758 240.175C298.892 237.77 292.897 234.678 286.773 230.899C280.735 227.033 274.783 222.223 268.917 216.468C259.515 207.278 252.442 197.057 247.697 185.804C243.039 174.552 240.71 162.871 240.71 150.76C240.71 150.159 240.71 149.514 240.71 148.827C240.883 140.925 242.134 133.023 244.463 125.121C246.878 117.133 250.371 109.488 254.943 102.187C259.601 94.8862 265.38 88.1006 272.281 81.8304C279.182 75.4742 287.29 69.9771 296.606 65.3388C305.922 60.7006 316.403 57.0501 328.048 54.3874C339.779 51.7247 352.761 50.3933 366.993 50.3933C379.587 50.3933 391.232 51.3811 401.928 53.3567C412.711 55.2463 422.63 57.8661 431.688 61.2159C440.745 64.5658 449.026 68.5169 456.53 73.0692C464.035 77.6216 470.849 82.5605 476.974 87.8858C483.098 93.1254 488.532 98.6225 493.277 104.377C498.107 110.046 502.377 115.758 506.086 121.513V55.1604H541.409Z" fill="#F0ECEA"/>
<path d="M566.898 55.1604H708.579L708.967 289.225C708.967 289.225 705.514 279.982 695.78 268.537C686.046 257.093 675.585 251.59 675.585 251.59V86.8551H601.316V245.805V236.406C601.316 236.406 590.872 236.686 584.283 237.726C577.693 238.766 566.898 241.247 566.898 241.247V55.1604Z" fill="#F0ECEA"/>
<path d="M139.917 439.816C127.841 439.816 116.153 439 104.853 437.368C93.5528 435.736 82.9429 433.288 73.0232 430.024C63.1034 426.674 54.0462 422.465 45.8516 417.397C37.657 412.33 30.5838 406.317 24.6319 399.36C18.7663 392.317 14.1946 384.285 10.9168 375.267C7.63892 366.248 6 356.198 6 345.118C6 334.553 7.63892 324.89 10.9168 316.129C14.1946 307.368 18.7663 299.466 24.6319 292.422C30.5838 285.379 37.657 279.238 45.8516 273.998C54.0462 268.673 63.1034 264.249 73.0232 260.728C82.9429 257.206 93.5528 254.586 104.853 252.868C116.153 251.065 127.841 250.163 139.917 250.163L139.788 281.857C123.657 281.943 109.381 283.833 96.96 287.526C84.625 291.134 74.2739 295.901 65.9068 301.828C57.5397 307.668 51.1565 314.368 46.7573 321.927C42.4444 329.4 40.2017 337.087 40.0291 344.989C40.0291 345.333 40.0291 345.676 40.0291 346.02C40.0291 353.579 42.0131 361.051 45.981 368.438C49.9489 375.825 56.0733 382.482 64.3541 388.408C72.7213 394.335 83.1586 399.145 95.6661 402.839C108.26 406.532 122.967 408.422 139.788 408.507L139.917 439.816Z" fill="#F0ECEA"/>
<path d="M257.143 366.377C257.143 381.923 256.108 394.807 254.037 405.029C251.967 415.25 248.905 423.41 244.851 429.508C240.883 435.521 235.88 439.773 229.842 442.264C223.89 444.755 216.989 446 209.14 446C202.066 446 195.813 444.969 190.378 442.908C185.03 440.846 180.415 438.141 176.534 434.791C172.652 431.441 169.417 427.705 166.83 423.582C164.242 419.459 162.172 415.336 160.619 411.213C159.066 407.09 157.988 403.182 157.384 399.489C156.781 395.795 156.479 392.746 156.479 390.341H187.273C187.273 399.961 189.171 407.262 192.966 412.244C196.848 417.14 201.808 419.588 207.846 419.588C211.296 419.588 214.1 418.514 216.256 416.367C218.413 414.133 220.095 410.955 221.302 406.833C222.596 402.71 223.459 397.771 223.89 392.016C224.321 386.175 224.537 379.647 224.537 372.432V372.174C221.604 372.604 218.801 372.948 216.127 373.205C213.539 373.463 211.037 373.592 208.622 373.592C198.444 373.592 189.947 371.831 183.133 368.309C176.318 364.788 170.841 360.149 166.7 354.395C162.56 348.554 159.498 341.983 157.514 334.682C155.616 327.295 154.452 319.737 154.02 312.006C153.848 309.086 153.761 306.122 153.761 303.116C153.761 287.312 156.047 269.746 160.619 250.42H193.872C189.645 268.544 187.402 284.692 187.144 298.864C187.144 299.466 187.144 300.11 187.144 300.797C187.144 306.122 187.489 311.577 188.179 317.16C188.869 322.657 190.249 327.682 192.319 332.234C194.476 336.7 197.408 340.351 201.118 343.185C204.913 345.934 209.743 347.308 215.609 347.308C218.111 347.308 221.087 346.965 224.537 346.278V250.596C224.537 250.596 224.615 247.501 222.627 245.458C220.64 243.414 217.032 242.881 217.032 242.881L257.076 243.674C257.076 243.674 257.075 247.632 257.143 250.558C257.21 253.484 257.143 366.377 257.143 366.377Z" fill="#F0ECEA"/>
<path d="M496.252 250.292V446H458.989V283.661C449.673 286.324 439.408 289.502 428.194 293.195C417.067 296.803 404.947 301.57 391.836 307.497C385.022 310.589 378.078 314.025 371.005 317.804C363.931 321.497 357.074 325.534 350.432 329.915C343.79 334.295 337.536 338.977 331.67 343.958C325.805 348.854 320.672 354.094 316.273 359.677C311.96 365.174 308.51 370.972 305.922 377.07C303.421 383.169 302.17 389.525 302.17 396.139C302.17 400.262 302.817 403.526 304.111 405.931C305.491 408.25 307.087 410.011 308.898 411.213C310.71 412.33 312.607 413.06 314.591 413.403C316.575 413.661 318.214 413.79 319.508 413.79V444.325C318.042 444.325 315.713 444.11 312.521 443.681C309.329 443.337 305.793 442.607 301.911 441.491C298.03 440.374 294.018 438.742 289.878 436.595C285.824 434.447 282.072 431.613 278.621 428.091C275.257 424.484 272.497 420.103 270.34 414.949C268.184 409.71 267.106 403.44 267.106 396.139C267.106 386.089 268.96 376.555 272.669 367.536C276.379 358.432 281.425 349.885 287.808 341.897C294.191 333.909 301.695 326.436 310.321 319.479C319.034 312.436 328.35 305.908 338.269 299.895C348.275 293.883 358.669 288.385 369.452 283.404C380.234 278.336 390.93 273.741 401.54 269.618C412.15 265.495 422.415 261.844 432.335 258.666C442.341 255.402 451.527 252.611 459.894 250.292H496.252Z" fill="#F0ECEA"/>
<path d="M708.579 362.125C708.492 363.843 708.449 365.604 708.449 367.407C708.449 370.757 708.622 374.622 708.967 379.003C709.398 383.384 710.174 387.936 711.296 392.66C712.417 397.298 713.797 401.335 715.436 404.771C717.075 408.121 718.345 409.591 721 411.471L704.309 442.521C700.945 440.975 697.926 439 695.252 436.595C692.664 434.104 690.335 431.312 688.265 428.22C686.194 425.128 684.383 421.821 682.83 418.299C681.364 414.778 680.07 411.17 678.949 407.477C674.032 412.716 668.555 417.526 662.516 421.907C656.478 426.287 649.923 430.11 642.849 433.374C635.862 436.552 628.401 439.043 620.465 440.846C612.616 442.736 604.378 443.81 595.752 444.067C594.631 444.067 593.552 444.067 592.517 444.067C585.272 444.067 578.112 443.251 571.039 441.619C563.966 440.073 557.237 437.754 550.854 434.662C544.557 431.484 538.864 427.791 533.775 423.582C528.772 419.287 524.502 414.692 520.966 409.796C517.429 404.9 514.712 399.832 512.814 394.593C511.003 389.267 510.097 384.071 510.097 379.003C510.097 370.585 511.477 363.456 514.237 357.616C517.084 351.689 520.707 346.75 525.106 342.799C529.591 338.762 534.594 335.541 540.115 333.136C545.722 330.731 551.286 328.884 556.806 327.596C562.413 326.307 567.675 325.406 572.592 324.89C577.595 324.375 581.735 323.988 585.013 323.731L586.824 323.602C592.086 323.172 598.124 322.829 604.939 322.571C611.839 322.227 619.085 322.013 626.676 321.927C634.267 321.755 641.987 321.669 649.836 321.669C657.772 321.669 665.406 321.712 672.738 321.798C672.738 316.902 671.056 311.834 667.692 306.595C664.328 301.269 659.713 296.416 653.847 292.036C647.982 287.569 640.995 283.919 632.887 281.084C624.864 278.164 616.195 276.704 606.879 276.704C601.704 276.704 596.356 277.219 590.835 278.25C585.401 279.281 579.837 280.956 574.144 283.275C568.537 285.594 563.798 288.045 557.174 291.17C555.257 292.074 553.456 292.842 551.761 293.512C540.436 297.987 524.826 294.478 517.084 285.078C523.295 278.121 530.109 272.151 537.527 267.17C545.032 262.188 558.599 254.768 566.448 251.59C573.222 249.17 579.02 248.435 584.283 247.41C590.191 246.258 595.838 246.099 601.316 245.805C603.196 245.704 605.05 245.653 606.879 245.653C619.646 245.653 631.032 246.985 641.038 249.647C651.044 252.31 659.799 255.832 667.304 260.212C674.895 264.507 681.278 269.403 686.453 274.9C691.715 280.397 695.985 285.98 699.263 291.649C702.541 297.318 704.913 302.815 706.379 308.141C707.845 313.466 708.579 318.147 708.579 322.184C708.579 322.27 708.751 322.225 708.579 322.225C708.492 322.225 708.579 322.356 708.579 322.442V362.125ZM553.054 396.654C559.351 402.323 566.295 406.489 573.885 409.152C581.476 411.814 589.326 413.146 597.434 413.146C606.233 413.146 614.945 411.686 623.571 408.765C632.196 405.845 640.089 401.722 647.249 396.396C654.494 390.985 660.662 384.543 665.751 377.07C670.84 369.512 674.205 361.094 675.844 351.818C668.511 351.732 660.834 351.689 652.812 351.689C644.877 351.689 637.07 351.775 629.393 351.947C621.716 352.032 614.427 352.204 607.526 352.462C600.626 352.72 594.588 353.063 589.412 353.493L587.471 353.622C578.759 354.395 571.6 355.382 565.993 356.585C560.386 357.787 555.944 359.376 552.666 361.352C549.388 363.327 547.102 365.775 545.808 368.696C544.514 371.53 543.867 374.966 543.867 379.003C543.867 382.267 544.687 385.359 546.326 388.28C548.051 391.114 550.294 393.906 553.054 396.654Z" fill="#F0ECEA"/>
</g>
<defs>
<filter id="filter0_di_259_18" x="0" y="-1" width="726" height="453" filterUnits="userSpaceOnUse" color-interpolation-filters="sRGB">
<feFlood flood-opacity="0" result="BackgroundImageFix"/>
<feColorMatrix in="SourceAlpha" type="matrix" values="0 0 0 0 0 0 0 0 0 0 0 0 0 0 0 0 0 0 127 0" result="hardAlpha"/>
<feOffset dx="-1" dy="1"/>
<feGaussianBlur stdDeviation="2.5"/>
<feComposite in2="hardAlpha" operator="out"/>
<feColorMatrix type="matrix" values="0 0 0 0 0.243137 0 0 0 0 0.333333 0 0 0 0 0.611765 0 0 0 0.9 0"/>
<feBlend mode="normal" in2="BackgroundImageFix" result="effect1_dropShadow_259_18"/>
<feBlend mode="normal" in="SourceGraphic" in2="effect1_dropShadow_259_18" result="shape"/>
<feColorMatrix in="SourceAlpha" type="matrix" values="0 0 0 0 0 0 0 0 0 0 0 0 0 0 0 0 0 0 127 0" result="hardAlpha"/>
<feOffset dx="5" dy="-5"/>
<feGaussianBlur stdDeviation="3.5"/>
<feComposite in2="hardAlpha" operator="arithmetic" k2="-1" k3="1"/>
<feColorMatrix type="matrix" values="0 0 0 0 0.243137 0 0 0 0 0.333333 0 0 0 0 0.611765 0 0 0 0.25 0"/>
<feBlend mode="normal" in2="shape" result="effect2_innerShadow_259_18"/>
</filter>
</defs>
</svg>
