<svg width="955" height="22" viewBox="0 0 955 22" fill="none" xmlns="http://www.w3.org/2000/svg">
<path d="M2.35714 16.5H0V14.1429H2.35714V7.07143H0V4.71429H2.35714V0H7.07143V4.71429H9.42857V0H14.1429V4.71429H16.5V7.07143H14.1429V14.1429H16.5V16.5H14.1429V21.2143H9.42857V16.5H7.07143V21.2143H2.35714V16.5ZM7.07143 14.1429H9.42857V7.07143H7.07143V14.1429Z" fill="#F0ECEA"/>
<path d="M37.7051 18.8571V21.2143H23.5622V18.8571H28.2765V7.07143H23.5622V4.71429H25.9194V2.35714H28.2765V0H32.9908V18.8571H37.7051Z" fill="#F0ECEA"/>
<path d="M311.357 16.5H309V14.1429H311.357V7.07143H309V4.71429H311.357V0H316.071V4.71429H318.429V0H323.143V4.71429H325.5V7.07143H323.143V14.1429H325.5V16.5H323.143V21.2143H318.429V16.5H316.071V21.2143H311.357V16.5ZM316.071 14.1429H318.429V7.07143H316.071V14.1429Z" fill="#F0ECEA"/>
<path d="M332.562 16.5V14.1429H334.919V11.7857H337.277V9.42857H339.634V7.07143H341.991V2.35714H334.919V4.71429H330.205V2.35714H332.562V0H344.348V2.35714H346.705V7.07143H344.348V9.42857H341.991V11.7857H339.634V14.1429H337.277V16.5H334.919V18.8571H341.991V16.5H346.705V21.2143H330.205V16.5H332.562Z" fill="#F0ECEA"/>
<path d="M614.357 16.5H612V14.1429H614.357V7.07143H612V4.71429H614.357V0H619.071V4.71429H621.429V0H626.143V4.71429H628.5V7.07143H626.143V14.1429H628.5V16.5H626.143V21.2143H621.429V16.5H619.071V21.2143H614.357V16.5ZM619.071 14.1429H621.429V7.07143H619.071V14.1429Z" fill="#F0ECEA"/>
<path d="M635.562 18.8571H633.205V16.5H637.919V18.8571H644.991V11.7857H637.919V9.42857H644.991V2.35714H637.919V4.71429H633.205V2.35714H635.562V0H647.348V2.35714H649.705V9.42857H647.348V11.7857H649.705V18.8571H647.348V21.2143H635.562V18.8571Z" fill="#F0ECEA"/>
<path d="M919.357 16.5H917V14.1429H919.357V7.07143H917V4.71429H919.357V0H924.071V4.71429H926.429V0H931.143V4.71429H933.5V7.07143H931.143V14.1429H933.5V16.5H931.143V21.2143H926.429V16.5H924.071V21.2143H919.357V16.5ZM924.071 14.1429H926.429V7.07143H924.071V14.1429Z" fill="#F0ECEA"/>
<path d="M940.562 9.42857V7.07143H942.919V4.71429H945.276V2.35714H947.634V0H952.348V11.7857H954.705V14.1429H952.348V18.8571H954.705V21.2143H945.276V18.8571H947.634V14.1429H938.205V9.42857H940.562ZM945.276 9.42857H942.919V11.7857H947.634V7.07143H945.276V9.42857Z" fill="#F0ECEA"/>
</svg>
