<svg width="225" height="223" viewBox="0 0 225 223" fill="none" xmlns="http://www.w3.org/2000/svg">
<path d="M10.3067 18.5134L7.74864 16.8854L10.7766 12.1276L5.5863 8.82427L2.55829 13.5821L0.000193612 11.954L7.33033 0.436424L9.88842 2.06447L7.04918 6.52569L12.2395 9.82897L15.0788 5.36775L17.6369 6.99579L10.3067 18.5134ZM15.8556 17.3911C16.3018 16.7262 16.8692 16.2661 17.558 16.0108C18.2521 15.7475 18.9986 15.6427 19.7975 15.6966C20.6044 15.7559 21.4354 15.9548 22.2902 16.2932C23.1587 16.629 23.9821 17.058 24.7606 17.5804C25.1904 17.8688 25.5539 18.1245 25.8512 18.3475C26.1484 18.5705 26.4443 18.8043 26.7388 19.0489L27.0408 18.5989C27.438 18.0069 27.5035 17.4099 27.2371 16.8078C26.9789 16.2111 26.4768 15.6625 25.7307 15.1619C25.0496 14.7048 24.2909 14.3369 23.4548 14.0581C22.6242 13.7712 21.7702 13.598 20.8928 13.5385L21.1933 10.8824C22.2277 10.9532 23.2523 11.1526 24.267 11.4807C25.2953 11.8061 26.2838 12.2871 27.2325 12.9238C27.8488 13.3373 28.4067 13.8116 28.9062 14.3467C29.4138 14.8872 29.7966 15.4734 30.0547 16.1053C30.321 16.7426 30.4246 17.4119 30.3656 18.1132C30.3121 18.8064 30.035 19.526 29.5344 20.2721L24.4331 27.8745L21.9395 26.2012L23.0577 24.5348C22.2468 24.8845 21.3379 24.9684 20.3308 24.7866C19.3319 24.6103 18.3865 24.2228 17.4945 23.6243C16.943 23.2543 16.4717 22.8263 16.0804 22.3403C15.6918 21.8678 15.4198 21.3619 15.2643 20.8224C15.1088 20.2829 15.0685 19.7208 15.1434 19.136C15.2319 18.5485 15.4692 17.9669 15.8556 17.3911ZM19.6491 21.8066C20.1438 22.1385 20.6468 22.3878 21.1582 22.5546C21.6832 22.7187 22.1854 22.8028 22.6648 22.8069C23.1496 22.803 23.5914 22.7054 23.9901 22.5143C24.3969 22.3287 24.7282 22.0453 24.984 21.6641L25.2696 21.2384C24.9158 20.9069 24.5673 20.6201 24.224 20.378C23.8808 20.1359 23.5753 19.9251 23.3077 19.7455C22.0751 18.9185 21.0338 18.4549 20.1836 18.3548C19.3415 18.2602 18.76 18.4521 18.4389 18.9306C17.8023 19.8793 18.2057 20.838 19.6491 21.8066ZM58.8318 40.8624C58.0648 41.8863 57.2235 42.7813 56.3079 43.5474C55.4059 44.3116 54.4531 44.8668 53.4494 45.213C52.4593 45.5573 51.434 45.6555 50.3734 45.5077C49.3206 45.3657 48.2666 44.8994 47.2115 44.109L42.2407 40.3851L53.7021 25.0859L58.6729 28.8098C59.7124 29.5885 60.4453 30.467 60.8716 31.4453C61.3116 32.4216 61.5055 33.4332 61.4533 34.4801C61.409 35.5329 61.1508 36.6024 60.6787 37.6886C60.2145 38.7806 59.5988 39.8386 58.8318 40.8624ZM56.405 39.0444C57.7283 37.2781 58.4374 35.7044 58.5323 34.3235C58.6331 32.9348 58.1325 31.8277 57.0305 31.0021L54.4865 29.0962L46.3011 40.0226L48.8451 41.9284C49.9471 42.754 51.1562 42.9154 52.4723 42.4128C53.7884 41.9101 55.0993 40.7873 56.405 39.0444ZM69.9279 52.4058C68.4293 54.3084 66.8595 55.465 65.2185 55.8755C63.5912 56.2844 61.9452 55.8332 60.2804 54.522C58.9455 53.4705 58.1004 52.2393 57.745 50.8281C57.3957 49.4093 57.5906 47.8598 58.3297 46.1795L61.1046 47.0599C60.6201 48.1327 60.4278 49.1187 60.5276 50.0178C60.6412 50.9152 61.1238 51.6993 61.9753 52.37C62.4893 52.7749 62.9929 53.0037 63.4859 53.0564C63.985 53.1014 64.4655 53.0199 64.9276 52.8121C65.3974 52.6102 65.848 52.3064 66.2796 51.9004C66.725 51.4929 67.147 51.0359 67.5458 50.5296L74.8603 41.243L77.2424 43.1192L69.9279 52.4058ZM78.5379 68.9042L69.1417 61.0965L81.3589 46.3938L90.7551 54.2015L89.0044 56.3084L81.9403 50.4385L78.5701 54.4944L84.0794 59.0724L82.3287 61.1792L76.8194 56.6012L73.2151 60.9388L80.2792 66.8087L78.5379 68.9042ZM91.3793 80.0067L89.0977 78.0095L97.6169 68.2768L91.6481 72.1824L89.8845 70.6387L92.9875 64.2246L84.4683 73.9574L82.1867 71.9602L94.7774 57.5761L97.4889 59.9495L93.6703 68.0928L101.236 63.2298L103.97 65.6225L91.3793 80.0067ZM121.715 99.017C120.973 99.781 120.178 100.356 119.327 100.742C118.484 101.134 117.613 101.338 116.715 101.351C115.832 101.365 114.952 101.192 114.076 100.832C113.201 100.472 112.374 99.9151 111.596 99.1603C110.832 98.4192 110.257 97.6164 109.871 96.7521C109.485 95.8878 109.281 95.0104 109.261 94.1198C109.254 93.229 109.431 92.3527 109.791 91.4908C110.158 90.6358 110.712 89.8263 111.453 89.0623C112.174 88.3193 112.959 87.7479 113.809 87.3483C114.673 86.9484 115.551 86.7383 116.441 86.7178C117.346 86.6972 118.232 86.8702 119.101 87.2368C119.977 87.5965 120.797 88.1469 121.561 88.888C122.339 89.6428 122.921 90.4523 123.307 91.3167C123.7 92.174 123.896 93.0515 123.896 93.9493C123.91 94.8469 123.726 95.7302 123.346 96.5993C122.979 97.4681 122.435 98.274 121.715 99.017ZM119.549 96.9159C119.977 96.4743 120.312 95.9893 120.552 95.4607C120.807 94.932 120.94 94.4017 120.953 93.8697C120.965 93.3377 120.864 92.8109 120.649 92.2893C120.448 91.7675 120.119 91.2856 119.664 90.8437C119.201 90.3949 118.706 90.0778 118.178 89.8925C117.657 89.7001 117.135 89.6217 116.61 89.6573C116.086 89.6929 115.56 89.8424 115.032 90.106C114.518 90.3693 114.047 90.7218 113.619 91.1634C113.17 91.626 112.829 92.1112 112.595 92.6189C112.368 93.1334 112.241 93.6567 112.214 94.1889C112.188 94.721 112.279 95.2445 112.487 95.7593C112.702 96.2671 113.04 96.7454 113.503 97.1942C113.959 97.6362 114.444 97.9568 114.958 98.1562C115.486 98.3554 116.019 98.4371 116.557 98.4013C117.095 98.3655 117.614 98.2229 118.114 97.9736C118.622 97.7311 119.1 97.3785 119.549 96.9159ZM133.424 111.012L131.526 109.078L134.538 106.123L132.732 104.283L126.887 110.017L129.01 112.182L127.065 114.09L120.705 107.607L122.65 105.699L124.763 107.853L130.609 102.118L128.783 100.257L125.771 103.211L123.884 101.287L128.851 96.4148L138.391 106.14L133.424 111.012ZM151.567 140.662L149.219 138.006L152.573 128.353L150.619 128.399L145.066 133.309L143.058 131.037L157.379 118.375L159.387 120.647L153.769 125.615L163.327 125.102L165.908 128.021L155.556 128.277L151.567 140.662ZM156.793 140.644C157.405 140.129 158.078 139.843 158.81 139.788C159.55 139.727 160.296 139.832 161.049 140.105C161.808 140.385 162.552 140.806 163.28 141.367C164.022 141.93 164.695 142.57 165.299 143.287C165.632 143.683 165.911 144.029 166.135 144.325C166.359 144.622 166.579 144.928 166.794 145.245L167.209 144.896C167.754 144.437 167.982 143.881 167.892 143.229C167.809 142.584 167.478 141.918 166.899 141.231C166.371 140.603 165.743 140.04 165.017 139.541C164.298 139.036 163.525 138.633 162.698 138.334L163.721 135.864C164.696 136.218 165.625 136.693 166.51 137.288C167.408 137.885 168.225 138.621 168.961 139.495C169.439 140.062 169.844 140.672 170.176 141.325C170.515 141.984 170.721 142.653 170.794 143.332C170.874 144.018 170.789 144.69 170.538 145.348C170.295 145.999 169.83 146.614 169.143 147.193L162.139 153.09L160.205 150.792L161.74 149.5C160.864 149.612 159.968 149.441 159.05 148.988C158.139 148.543 157.337 147.909 156.645 147.088C156.218 146.58 155.883 146.038 155.641 145.463C155.398 144.901 155.277 144.34 155.276 143.779C155.276 143.217 155.392 142.666 155.626 142.124C155.873 141.584 156.262 141.091 156.793 140.644ZM159.218 145.936C159.602 146.392 160.017 146.77 160.462 147.072C160.921 147.375 161.381 147.594 161.84 147.731C162.307 147.861 162.759 147.889 163.195 147.816C163.637 147.75 164.034 147.569 164.385 147.273L164.777 146.943C164.529 146.527 164.273 146.155 164.01 145.827C163.747 145.5 163.512 145.213 163.304 144.966C162.348 143.831 161.475 143.097 160.686 142.766C159.903 142.443 159.291 142.467 158.85 142.838C157.976 143.574 158.099 144.606 159.218 145.936ZM172.838 166.306L170.945 163.937L179.468 157.122L175.626 152.317L167.103 159.132L165.209 156.764L175.872 148.238L183.501 157.78L172.838 166.306ZM184.847 178.764C183.615 178.593 182.577 178.216 181.73 177.632C180.89 177.056 180.128 176.316 179.444 175.413C178.754 174.502 178.263 173.569 177.97 172.615C177.682 171.669 177.586 170.75 177.682 169.857C177.791 168.966 178.09 168.115 178.579 167.304C179.073 166.501 179.753 165.773 180.617 165.118C181.442 164.494 182.309 164.052 183.216 163.794C184.136 163.538 185.023 163.455 185.875 163.545C186.74 163.637 187.555 163.896 188.319 164.322C189.09 164.743 189.747 165.311 190.289 166.027C190.855 166.775 191.191 167.543 191.298 168.332C191.405 169.12 191.253 169.866 190.842 170.569L192.419 169.375L194.055 171.536L188.986 175.373L187.35 173.212C188.308 172.487 188.871 171.645 189.038 170.685C189.22 169.728 188.992 168.828 188.355 167.987C188.102 167.652 187.764 167.351 187.341 167.084C186.931 166.818 186.465 166.638 185.941 166.545C185.423 166.459 184.865 166.483 184.268 166.617C183.671 166.75 183.061 167.053 182.438 167.524C181.831 167.984 181.379 168.479 181.083 169.01C180.794 169.535 180.623 170.062 180.571 170.591C180.532 171.123 180.601 171.658 180.777 172.199C180.967 172.741 181.236 173.242 181.584 173.701C182.179 174.487 182.816 175.077 183.493 175.471C184.184 175.866 184.891 176.121 185.615 176.235L184.847 178.764ZM204.596 186.011L187.911 190.762C186.695 191.096 185.66 191.053 184.804 190.634C183.949 190.214 183.182 189.533 182.504 188.59C182.27 188.265 182.05 187.893 181.846 187.475C181.641 187.057 181.469 186.591 181.328 186.079L183.955 184.964C184.074 185.396 184.212 185.772 184.37 186.092C184.52 186.417 184.674 186.691 184.834 186.913C185.364 187.65 186.06 187.914 186.919 187.704L188.306 187.374L196.639 174.953L198.479 177.51L192.286 186.585L202.697 183.371L204.596 186.011ZM214.087 199.794L202.799 207.473L201.094 204.966L210.117 198.827L207.217 194.564L201.536 198.428C200.882 198.873 200.255 199.158 199.655 199.283C199.063 199.402 198.516 199.396 198.014 199.266C197.517 199.143 197.055 198.908 196.63 198.56C196.201 198.225 195.82 197.811 195.485 197.319C195.023 196.641 194.786 196.075 194.774 195.623L197.144 194.471C197.162 194.637 197.204 194.803 197.271 194.97C197.332 195.129 197.439 195.322 197.593 195.548C198.181 196.412 198.927 196.536 199.831 195.921L207.776 190.516L214.087 199.794ZM213.626 216.338C212.459 217.088 211.339 217.287 210.264 216.933C209.197 216.574 208.235 215.73 207.379 214.4L204.914 210.568L216.395 203.181L218.028 205.719L213.581 208.58L214.429 209.898C215.275 211.212 215.644 212.426 215.536 213.541C215.437 214.65 214.8 215.582 213.626 216.338ZM211.96 213.804C212.379 213.534 212.592 213.188 212.599 212.766C212.614 212.338 212.46 211.873 212.138 211.373L211.29 210.054L208.838 211.632L209.686 212.95C210.009 213.451 210.368 213.783 210.763 213.947C211.159 214.11 211.558 214.062 211.96 213.804ZM222.459 212.605L224.1 215.155L212.619 222.542L210.978 219.992L222.459 212.605Z" fill="black"/>
</svg>
