<svg width="254" height="62" viewBox="0 0 254 62" fill="none" xmlns="http://www.w3.org/2000/svg">
<g filter="url(#filter0_di_835_49)">
<rect x="245" y="9" width="42" height="234" rx="21" transform="rotate(90 245 9)" fill="#F0ECEA"/>
</g>
<path d="M46.2854 35.8572V27.2858H44.1426V25.1429H50.5711V29.4286H52.714V27.2858H54.8569V25.1429H59.1426V27.2858H56.9997V29.4286H54.8569V33.7144H56.9997V35.8572H59.1426V38.0001H54.8569V35.8572H52.714V33.7144H50.5711V38.0001H44.1426V35.8572H46.2854Z" fill="black"/>
<path d="M78.4199 35.8572H76.2771V38.0001H65.5628V35.8572H63.4199V27.2858H65.5628V25.1429H76.2771V27.2858H78.4199V35.8572ZM67.7056 35.8572H74.1342V27.2858H67.7056V35.8572Z" fill="black"/>
<path d="M97.6973 29.4286H93.4116V27.2858H89.1258V35.8572H91.2687V38.0001H82.6973V35.8572H84.8401V27.2858H82.6973V25.1429H97.6973V29.4286Z" fill="black"/>
<path d="M99.8318 35.8572H101.975V29.4286H104.117V27.2858H106.26V25.1429H114.832V35.8572H116.975V40.1429H112.689V38.0001H104.117V40.1429H99.8318V35.8572ZM106.26 35.8572H110.546V27.2858H108.403V29.4286H106.26V35.8572Z" fill="black"/>
<path d="M136.252 35.8572V38.0001H131.966V35.8572H129.823V31.5715H125.538V35.8572H129.823V38.0001H123.395V35.8572H121.252V31.5715H123.395V29.4286H129.823V27.2858H123.395V25.1429H131.966V27.2858H134.109V35.8572H136.252Z" fill="black"/>
<path d="M155.529 25.1429H153.386V27.2858H151.244V31.5715H146.958V27.2858H149.101V25.1429H151.244V20.8572H144.815V25.1429H140.529V20.8572H142.672V18.7144H153.386V20.8572H155.529V25.1429ZM146.958 33.7144H151.244V38.0001H146.958V33.7144Z" fill="black"/>
<defs>
<filter id="filter0_di_835_49" x="0" y="0" width="254" height="62" filterUnits="userSpaceOnUse" color-interpolation-filters="sRGB">
<feFlood flood-opacity="0" result="BackgroundImageFix"/>
<feColorMatrix in="SourceAlpha" type="matrix" values="0 0 0 0 0 0 0 0 0 0 0 0 0 0 0 0 0 0 127 0" result="hardAlpha"/>
<feOffset dx="-1" dy="1"/>
<feGaussianBlur stdDeviation="5"/>
<feComposite in2="hardAlpha" operator="out"/>
<feColorMatrix type="matrix" values="0 0 0 0 0.243137 0 0 0 0 0.333333 0 0 0 0 0.611765 0 0 0 0.9 0"/>
<feBlend mode="normal" in2="BackgroundImageFix" result="effect1_dropShadow_835_49"/>
<feBlend mode="normal" in="SourceGraphic" in2="effect1_dropShadow_835_49" result="shape"/>
<feColorMatrix in="SourceAlpha" type="matrix" values="0 0 0 0 0 0 0 0 0 0 0 0 0 0 0 0 0 0 127 0" result="hardAlpha"/>
<feOffset dx="5" dy="-5"/>
<feGaussianBlur stdDeviation="3.5"/>
<feComposite in2="hardAlpha" operator="arithmetic" k2="-1" k3="1"/>
<feColorMatrix type="matrix" values="0 0 0 0 0.243137 0 0 0 0 0.333333 0 0 0 0 0.611765 0 0 0 0.25 0"/>
<feBlend mode="normal" in2="shape" result="effect2_innerShadow_835_49"/>
</filter>
</defs>
</svg>
